<?xml version="1.0" encoding="UTF-8" standalone="no"?>
<svg
   xmlns="http://www.w3.org/2000/svg"
   viewBox="0 0 200 200"
   width="200"
   height="200"
   version="1.1">
  <g>
    <path
       d="M 81.8,109.7 C 81.8,97.2 92,87 104.5,87 c 8.3,0 15.4,4.5 19.4,11.2 3,-1.3 6.2,-2 9.6,-2 13.6,0 24.6,11 24.6,24.6 0,13.6 -11,24.6 -24.6,24.6 h -51.5 c -9.6,0 -17.4,-7.8 -17.4,-17.4 0,-9.6 7.8,-17.4 17.4,-17.4 0,0 0,0 0,0 0.3,-0.5 0.3,-0.8 0.3,-0.9 z"
       fill="#0078d4" />
    <path
       d="m 133.6,96.2 c -3.4,0 -6.6,0.7 -9.6,2 -3.9,-6.7 -11.1,-11.2 -19.4,-11.2 -12.5,0 -22.7,10.2 -22.7,22.7 0,0.3 0,0.6 0,0.9 -9.6,0 -17.4,7.8 -17.4,17.4 0,9.6 7.8,17.4 17.4,17.4 h 51.5 c 13.6,0 24.6,-11 24.6,-24.6 0.2,-13.6 -10.8,-24.6 -24.4,-24.6 z"
       fill="#0078d4" />
    <path
       d="m 81.8,109.7 c 0,-12.5 10.2,-22.7 22.7,-22.7 8.3,0 15.4,4.5 19.4,11.2 3,-1.3 6.2,-2 9.6,-2 13.6,0 24.6,11 24.6,24.6 0,13.6 -11,24.6 -24.6,24.6 h -51.5 c -9.6,0 -17.4,-7.8 -17.4,-17.4 0,-9.6 7.8,-17.4 17.4,-17.4 0,0 0,0 0,0 0.3,-0.5 0.3,-0.8 0.3,-0.9 z"
       fill="none"
       stroke="#ffffff"
       stroke-width="4"
       stroke-linecap="round"
       stroke-linejoin="round" />
  </g>
</svg>
